<svg xmlns="http://www.w3.org/2000/svg" xmlns:xlink="http://www.w3.org/1999/xlink" viewBox="0,0,256,256" width="30px" height="30px"><defs><clipPath id="clip-1"><path d="M0,256v-256l167.20335,0c-40.63493,6.4631 -65.40065,43.88429 -67.61745,47.3619c-2.54104,3.86844 -3.82293,8.02513 -3.82293,12.37144c0,4.1491 1.16812,8.13132 3.4816,11.84047c3.55745,6.45499 28.86163,48.84101 79.95544,48.84101c43.33604,0 68.10811,-30.47882 76.8,-43.66848v179.25367zM256,0l0,43.28871c-7.81585,-10.68579 -30.726,-37.86956 -64.8016,-43.28871z" id="overlayBgMask" fill="none" stroke="none" stroke-width="1" stroke-linejoin="miter"></path></clipPath></defs><g clip-path="url(#clip-1)" fill="none" fill-rule="nonzero" stroke="none" stroke-width="none" stroke-linecap="butt" stroke-linejoin="none" stroke-miterlimit="10" stroke-dasharray="" stroke-dashoffset="0" font-family="none" font-weight="none" font-size="none" text-anchor="none" style="mix-blend-mode: normal"><path transform="scale(8.53333,8.53333)" d="M25.337,9.698c0.01,0.229 0.015,0.459 0.015,0.69c0,7.049 -5.364,15.177 -15.176,15.177c-3.013,0 -5.816,-0.883 -8.177,-2.396c0.418,0.05 0.843,0.075 1.273,0.075c2.5,0 4.8,-0.853 6.625,-2.284c-2.334,-0.043 -4.304,-1.586 -4.983,-3.705c0.325,0.061 0.66,0.095 1.003,0.095c0.487,0 0.959,-0.065 1.406,-0.187c-2.441,-0.489 -4.279,-2.645 -4.279,-5.23c0,-0.023 0,-0.044 0,-0.067c0.719,0.399 1.542,0.639 2.416,0.667c-1.431,-0.956 -2.372,-2.589 -2.372,-4.439c0,-0.979 0.263,-1.895 0.721,-2.683c2.632,3.228 6.562,5.352 10.995,5.574c-0.09,-0.389 -0.138,-0.797 -0.138,-1.215c0,-2.945 2.388,-5.334 5.334,-5.334c1.534,0 2.92,0.648 3.893,1.685c1.216,-0.24 2.358,-0.684 3.388,-1.295c-0.398,1.246 -1.243,2.291 -2.345,2.951c1.079,-0.129 2.107,-0.415 3.064,-0.84c-0.715,1.069 -1.62,2.008 -2.663,2.761z" id="strokeMainSVG" fill="#f1eeee" stroke="#f1eeee" stroke-width="4" stroke-linejoin="round"></path><g transform="scale(8.53333,8.53333)" fill="#9a0000" stroke="none" stroke-width="1" stroke-linejoin="miter"><path d="M28,6.937c-0.957,0.425 -1.985,0.711 -3.064,0.84c1.102,-0.66 1.947,-1.705 2.345,-2.951c-1.03,0.611 -2.172,1.055 -3.388,1.295c-0.973,-1.037 -2.359,-1.685 -3.893,-1.685c-2.946,0 -5.334,2.389 -5.334,5.334c0,0.418 0.048,0.826 0.138,1.215c-4.433,-0.222 -8.363,-2.346 -10.995,-5.574c-0.458,0.788 -0.721,1.704 -0.721,2.683c0,1.85 0.941,3.483 2.372,4.439c-0.874,-0.028 -1.697,-0.268 -2.416,-0.667c0,0.023 0,0.044 0,0.067c0,2.585 1.838,4.741 4.279,5.23c-0.447,0.122 -0.919,0.187 -1.406,0.187c-0.343,0 -0.678,-0.034 -1.003,-0.095c0.679,2.119 2.649,3.662 4.983,3.705c-1.825,1.431 -4.125,2.284 -6.625,2.284c-0.43,0 -0.855,-0.025 -1.273,-0.075c2.361,1.513 5.164,2.396 8.177,2.396c9.812,0 15.176,-8.128 15.176,-15.177c0,-0.231 -0.005,-0.461 -0.015,-0.69c1.043,-0.753 1.948,-1.692 2.663,-2.761z"></path></g></g><g fill="none" fill-rule="nonzero" stroke="none" stroke-width="none" stroke-linecap="butt" stroke-linejoin="none" stroke-miterlimit="10" stroke-dasharray="" stroke-dashoffset="0" font-family="none" font-weight="none" font-size="none" text-anchor="none" style="mix-blend-mode: normal"><path d="M247.46667,59.73333c0,1.57013 -0.59164,2.94305 -1.40326,4.1491c0,0 -21.3523,41.36201 -66.86341,41.36201c-45.51111,0 -66.87858,-41.38477 -66.87858,-41.38477c-0.80403,-1.19846 -1.38809,-2.56379 -1.38809,-4.12634c0,-1.55496 0.58406,-2.9203 1.3805,-4.11876c0,0 25.92616,-41.39236 66.88616,-41.39236c40.96,0 66.87099,41.37719 66.87099,41.37719c0.81161,1.20604 1.39567,2.57138 1.39567,4.13393z" id="strokeOverlay" fill="#f1eeee" stroke="#f1eeee" stroke-width="34.13333" stroke-linejoin="round"></path><g transform="translate(110.93333,14.22222) scale(7.58519,7.58519)" id="overlay" fill="#9a0000" stroke="none" stroke-width="1" stroke-linejoin="miter"><path d="M11,6c0,1.105 -0.895,2 -2,2c-1.105,0 -2,-0.895 -2,-2c0,-1.105 0.895,-2 2,-2c1.105,0 2,0.895 2,2zM18,6c0,0.207 -0.078,0.388 -0.185,0.547c0,0 -2.815,5.453 -8.815,5.453c-6,0 -8.817,-5.456 -8.817,-5.456c-0.106,-0.158 -0.183,-0.338 -0.183,-0.544c0,-0.205 0.077,-0.385 0.182,-0.543c0,0 3.418,-5.457 8.818,-5.457c5.4,0 8.816,5.455 8.816,5.455c0.107,0.159 0.184,0.339 0.184,0.545zM13,6c0,-2.209 -1.791,-4 -4,-4c-2.209,0 -4,1.791 -4,4c0,2.209 1.791,4 4,4c2.209,0 4,-1.791 4,-4z"></path></g></g></svg>